<svg width="32" height="32" viewBox="0 0 32 32" fill="none" xmlns="http://www.w3.org/2000/svg">
<circle cx="16" cy="16" r="16" fill="#FFCE40"/>
<path d="M24.7485 20C25.119 20 25.3684 20.3784 25.2078 20.7123C23.2431 24.7994 19.8569 27.4999 16.0054 27.5C12.154 27.4999 8.76769 24.7993 6.803 20.7123C6.64247 20.3784 6.89182 20 7.26236 20C7.31152 20 7.36042 20.007 7.40763 20.0207C10.1866 20.8268 13.0618 21.25 16.0054 21.25C18.9491 21.25 21.8242 20.8268 24.6032 20.0207C24.6504 20.007 24.6993 20 24.7485 20Z" fill="#734300"/>
<path d="M24.6786 4.43525C24.9209 4.0163 25.5577 4.15195 25.6083 4.6335L26.0174 8.52217C26.0401 8.73759 26.1991 8.91366 26.411 8.95869L30.2352 9.77217C30.709 9.87286 30.7772 10.5204 30.3348 10.7175L26.7626 12.3083C26.5648 12.3964 26.4461 12.6018 26.4686 12.8171L26.8778 16.7058C26.9284 17.1874 26.3328 17.4531 26.0087 17.0935L23.3924 14.1872C23.2475 14.0262 23.0151 13.977 22.8173 14.0651L19.245 15.655C18.8025 15.852 18.3671 15.3684 18.6092 14.9489L20.5643 11.5622C20.6725 11.3746 20.6477 11.1382 20.5028 10.9772L17.8856 8.07197C17.5617 7.71212 17.8877 7.14746 18.3612 7.24775L22.1864 8.06123C22.3982 8.10622 22.6152 8.00954 22.7235 7.82197L24.6786 4.43525Z" fill="#FF8B8B"/>
<path d="M6.60394 4.63356C6.65456 4.1519 7.29236 4.01601 7.5346 4.43532L9.48968 7.82203C9.59801 8.00955 9.81495 8.10632 10.0268 8.06129L13.851 7.24782C14.3248 7.14711 14.6507 7.71208 14.3266 8.07203L11.7104 10.9773C11.5654 11.1383 11.5406 11.3747 11.6489 11.5623L13.6039 14.949C13.8457 15.3684 13.4096 15.852 12.9672 15.655L9.39495 14.0652C9.19715 13.9772 8.96563 14.0264 8.82073 14.1873L6.20355 17.0925C5.87944 17.4525 5.28475 17.1875 5.33538 16.7058L5.74358 12.8172C5.76615 12.6018 5.64748 12.3964 5.44964 12.3084L1.87737 10.7175C1.43545 10.5203 1.50357 9.87306 1.97698 9.77223L5.80218 8.95875C6.01392 8.91362 6.1731 8.73756 6.19573 8.52223L6.60394 4.63356Z" fill="#FF8B8B"/>
</svg>
