<svg width="32" height="32" viewBox="0 0 32 32" fill="none" xmlns="http://www.w3.org/2000/svg">
<circle cx="16" cy="16" r="16" fill="#FFCE40"/>
<path d="M10.5 10C12.433 10 14 11.567 14 13.5C14 13.7879 13.75 14 13.4621 14H13.0518C12.4709 14 11.9205 13.4611 11.4013 13.2006C11.1504 13.0746 10.8383 13 10.5 13C10.1617 13 9.84964 13.0746 9.59873 13.2006C9.07954 13.4611 8.52908 14 7.94818 14H7.53786C7.24996 14 7 13.7879 7 13.5C7 11.567 8.567 10 10.5 10Z" fill="#734300"/>
<path d="M21.5 10C23.433 10 25 11.567 25 13.5C25 13.7879 24.75 14 24.4621 14H24.0518C23.4709 14 22.9205 13.4611 22.4013 13.2006C22.1504 13.0746 21.8383 13 21.5 13C21.1617 13 20.8496 13.0746 20.5987 13.2006C20.0795 13.4611 19.5291 14 18.9482 14H18.5379C18.25 14 18 13.7879 18 13.5C18 11.567 19.567 10 21.5 10Z" fill="#734300"/>
<path d="M23.5326 20.4999C23.9705 20.4999 24.2158 20.9934 23.926 21.3217C21.9254 23.5884 19.1166 24.9999 16.0044 24.9999C12.893 24.9998 10.0849 23.5893 8.0844 21.3236C7.79389 20.9946 8.03976 20.4999 8.47867 20.4999C8.59247 20.4999 8.70319 20.5364 8.7958 20.6026C10.9355 22.1304 13.3928 22.9999 16.0064 22.9999C18.6198 22.9998 21.0767 22.1301 23.2163 20.6023C23.3087 20.5363 23.4191 20.4999 23.5326 20.4999Z" fill="#734300"/>
<path d="M9.99348 7.98043L10.0065 8C13.5552 6.29228 14.9227 2.33354 13.3599 0.625835C11.7971 -1.08189 10.0065 1.24658 10.0065 1.24658H9.99348C9.99348 1.24658 8.2028 -1.08189 6.64005 0.625835C5.07734 2.33334 6.44477 6.27272 9.99348 7.98043Z" fill="#FF3C3C"/>
<path d="M28.9951 25.9853L29.0049 26C31.6664 24.7192 32.692 21.7502 31.52 20.4694C30.3478 19.1886 29.0049 20.9349 29.0049 20.9349H28.9951C28.9951 20.9349 27.6521 19.1886 26.48 20.4694C25.308 21.75 26.3336 24.7045 28.9951 25.9853Z" fill="#FF3C3C"/>
<path d="M4.99348 31.9804L5.00651 32C8.55524 30.2923 9.92267 26.3335 8.35994 24.6258C6.79706 22.9181 5.00651 25.2466 5.00651 25.2466H4.99348C4.99348 25.2466 3.2028 22.9181 1.64005 24.6258C0.0773407 26.3333 1.44477 30.2727 4.99348 31.9804Z" fill="#FF3C3C"/>
</svg>
